<svg xmlns="http://www.w3.org/2000/svg" viewBox="0 0 670 288">
  <path fill="#d8ccbc" fill-opacity="0.5" d="m170 284 .8-3.2-17.2-2.4c-10-1.6-11.6-4-9.2-12.4l13.6-54.4h43.2l4.4-9.6-.8-2h-44L210 2.8h-24.8L.4 208.8l-.4 2.8h123.2L109.6 266c-2 8-4.8 10.8-14.8 12.4l-18.4 2.4-.8 3.2Zm-4-250.8h1.6L126 200l-106 .4ZM316.4 288c79.2 0 140.8-95.2 140.8-184 0-55.2-28.4-104-77.2-104-79.6 0-140.8 95.2-140.8 184 0 55.2 28.4 104 77.2 104Zm2.4-5.6c-33.2 0-44.4-38.8-44.4-77.2 0-80.4 44.8-199.6 102.8-199.6 33.6 0 44.8 38.8 44.8 77.2 0 80.4-44.8 199.6-103.2 199.6ZM630 284l.8-3.2-17.2-2.4c-10-1.6-11.6-4-9.2-12.4l13.6-54.4h43.2l4.4-9.6-.8-2h-44L670 2.8h-24.8l-184.8 206-.4 2.8h123.2L569.6 266c-2 8-4.8 10.8-14.8 12.4l-18.4 2.4-.8 3.2Zm-4-250.8h1.6L586 200l-106 .4Z"/>
</svg>
