<?xml version="1.0" standalone="no"?>
<!DOCTYPE svg PUBLIC "-//W3C//DTD SVG 20010904//EN"
 "http://www.w3.org/TR/2001/REC-SVG-20010904/DTD/svg10.dtd">
<svg version="1.0" xmlns="http://www.w3.org/2000/svg"
 width="700.000000pt" height="700.000000pt" viewBox="0 0 700.000000 700.000000"
 preserveAspectRatio="xMidYMid meet">
<metadata>
Created by potrace 1.14, written by Peter Selinger 2001-2017
</metadata>
<g transform="translate(0.000000,700.000000) scale(0.100000,-0.100000)"
fill="#000000" stroke="none">
<path d="M1450 6985 c-111 -21 -123 -24 -205 -49 -202 -61 -345 -127 -496
-227 -324 -216 -559 -513 -668 -846 -58 -176 -75 -288 -76 -483 0 -195 8 -270
41 -399 86 -331 248 -598 483 -795 161 -135 447 -280 651 -330 72 -18 171 -38
220 -44 72 -9 386 -9 475 1 223 24 558 105 710 171 16 8 55 24 85 36 109 44
292 139 450 233 98 58 392 255 432 289 15 13 40 33 55 44 116 89 359 294 483
408 123 114 432 429 539 551 62 72 126 144 140 160 15 17 66 80 115 140 215
270 305 366 459 489 170 135 253 180 384 210 71 16 203 22 253 12 190 -40 271
-86 364 -210 107 -141 144 -303 121 -516 -28 -251 -142 -483 -373 -760 -91
-109 -270 -284 -357 -350 -33 -25 -62 -48 -65 -51 -24 -28 -246 -163 -370
-225 -98 -49 -465 -198 -478 -194 -1 0 -15 -6 -30 -14 -37 -19 -537 -186 -692
-231 -149 -43 -464 -126 -502 -132 -20 -3 -28 0 -28 10 0 22 -41 292 -45 296
-5 5 -174 -103 -170 -109 2 -4 9 -47 19 -125 2 -11 6 -43 10 -72 l8 -52 -39
-11 c-21 -6 -144 -40 -273 -76 -129 -36 -239 -66 -245 -68 -5 -1 -30 -8 -55
-15 -365 -99 -812 -316 -1145 -556 -90 -65 -243 -183 -265 -205 -3 -3 -25 -23
-50 -44 -160 -139 -345 -335 -527 -561 -239 -297 -369 -582 -428 -935 -24
-137 -27 -357 -8 -446 8 -38 16 -77 18 -88 15 -69 78 -195 135 -271 199 -265
452 -346 844 -271 125 24 332 117 492 221 101 66 257 177 274 195 5 5 150 123
180 147 8 6 40 31 70 55 187 148 498 370 735 524 157 103 464 288 540 326 28
14 77 38 110 54 33 15 67 33 75 40 23 18 451 197 595 249 282 102 492 166 591
180 21 3 46 8 54 11 8 3 85 7 170 9 207 5 318 -16 480 -92 272 -127 477 -418
525 -746 3 -17 9 -58 13 -90 5 -32 8 -104 6 -161 -2 -90 -7 -127 -30 -246 -12
-60 -68 -210 -101 -270 -159 -293 -407 -462 -708 -486 -71 -5 -219 -5 -250 1
-208 40 -347 80 -435 125 -116 59 -341 273 -431 410 -114 173 -229 400 -304
597 -32 84 -61 151 -64 150 -54 -25 -121 -63 -121 -71 0 -22 117 -300 189
-450 123 -255 203 -377 345 -532 200 -218 406 -336 696 -400 84 -18 352 -27
440 -14 125 18 148 23 238 46 416 108 788 376 1028 741 75 114 153 277 169
353 2 8 8 27 13 41 13 34 31 120 51 254 11 78 11 313 0 390 -5 33 -11 75 -14
92 -26 174 -128 426 -246 604 -104 158 -308 341 -490 441 -30 17 -58 33 -64
37 -40 30 -271 116 -390 145 -59 14 -82 19 -180 33 -79 12 -431 9 -525 -5 -47
-7 -103 -15 -125 -18 -59 -8 -238 -50 -331 -78 -162 -48 -293 -100 -438 -173
-81 -40 -115 -58 -241 -128 -22 -12 -74 -43 -115 -68 l-75 -46 -12 67 c-6 37
-12 81 -12 99 -1 17 -5 35 -11 38 -5 3 -48 -4 -94 -17 l-86 -22 6 -40 c3 -23
12 -79 20 -126 8 -47 14 -92 14 -100 0 -8 -42 -46 -93 -85 -284 -215 -536
-434 -792 -690 -110 -110 -223 -225 -250 -256 -28 -31 -65 -73 -84 -93 -90
-101 -167 -193 -266 -316 -214 -268 -318 -373 -501 -511 -182 -136 -306 -180
-494 -174 -88 3 -133 9 -192 29 -104 34 -126 46 -188 108 -91 90 -153 202
-180 325 -19 84 -14 281 10 363 5 16 7 30 5 30 -10 0 70 211 101 269 213 389
586 751 994 963 301 156 860 346 1365 463 88 21 259 62 380 92 121 29 227 55
235 57 345 85 531 144 790 249 144 59 400 183 513 251 43 25 81 46 83 46 3 0
17 8 32 19 15 10 68 45 117 77 165 107 382 270 510 384 181 161 345 327 475
480 30 36 57 67 61 70 20 18 134 179 176 250 112 187 201 424 237 630 3 19 8
46 11 59 10 53 19 202 18 301 -3 343 -215 655 -512 755 -281 95 -637 20 -992
-210 -111 -72 -264 -186 -369 -273 -36 -30 -74 -62 -85 -71 -49 -41 -321 -244
-430 -322 -454 -324 -894 -588 -1210 -726 -452 -198 -899 -352 -1123 -388 -24
-4 -110 -8 -190 -10 -117 -2 -166 1 -242 17 -415 87 -686 397 -758 868 -9 60
-9 304 0 359 48 281 189 531 382 678 111 84 290 156 416 168 71 6 268 8 277 2
5 -3 30 -8 57 -11 27 -4 52 -9 55 -11 3 -1 22 -6 42 -9 54 -8 196 -54 264 -86
131 -60 349 -263 457 -426 118 -177 220 -378 303 -597 29 -76 55 -140 58 -143
7 -7 127 54 127 64 0 44 -228 550 -307 684 -94 158 -253 344 -393 461 -143
120 -396 224 -620 256 -92 13 -333 11 -410 -4z"/>
</g>
</svg>
