<svg class="wheelies-landing-logo" xmlns="http://www.w3.org/2000/svg" x="0px" y="0px" viewBox="0 0 1280 1024" xml:space="preserve">
	<g class="part-five">
		<path d="M227.81,347.01c-5.48,0-10.61-3.45-12.48-8.91c-2.35-6.87,1.33-14.37,8.2-16.73l0,0c6.87-2.35,14.37,1.33,16.73,8.2
			c2.35,6.87-1.33,14.37-8.2,16.73C230.66,346.78,229.23,347.01,227.81,347.01z M226.12,328.92L226.12,328.92
			c-2.71,0.93-4.16,3.89-3.23,6.6c0.93,2.71,3.89,4.16,6.6,3.23c2.71-0.93,4.16-3.89,3.23-6.6
			C231.79,329.45,228.83,328,226.12,328.92z"/>
		<path d="M640.33,112.33c-5.48,0-10.61-3.44-12.47-8.91c-2.35-6.87,1.32-14.37,8.19-16.73l0,0c6.88-2.34,14.38,1.33,16.72,8.2
			c2.35,6.87-1.33,14.37-8.2,16.72C643.17,112.1,641.74,112.33,640.33,112.33z M638.63,94.24L638.63,94.24
			c-1.31,0.45-2.37,1.38-2.98,2.63s-0.7,2.66-0.25,3.97c0.93,2.71,3.88,4.16,6.6,3.24c2.71-0.93,4.16-3.89,3.23-6.6
			C644.3,94.77,641.35,93.31,638.63,94.24z"/>
		<path d="M137.84,74.21c-5.48,0-10.61-3.45-12.47-8.91c-2.35-6.87,1.32-14.37,8.19-16.73l0,0c6.88-2.34,14.38,1.33,16.73,8.2
			c2.35,6.87-1.33,14.37-8.2,16.72C140.68,73.98,139.25,74.21,137.84,74.21z M136.14,56.12c-2.71,0.93-4.16,3.89-3.23,6.6
			c0.93,2.71,3.88,4.16,6.6,3.23c2.71-0.93,4.16-3.89,3.23-6.6C141.81,56.65,138.86,55.2,136.14,56.12z"/>
		<path d="M449.57,674.69c-5.48,0-10.61-3.44-12.48-8.91c-2.35-6.87,1.33-14.37,8.2-16.73l0,0c3.33-1.14,6.9-0.91,10.06,0.64
			c3.16,1.55,5.53,4.23,6.66,7.56c2.35,6.86-1.33,14.37-8.19,16.72C452.42,674.46,450.99,674.69,449.57,674.69z M447.88,656.6
			L447.88,656.6c-2.71,0.93-4.16,3.89-3.24,6.6c0.93,2.71,3.88,4.16,6.6,3.23c2.71-0.93,4.16-3.89,3.23-6.6
			c-0.45-1.31-1.38-2.37-2.63-2.98C450.6,656.24,449.19,656.15,447.88,656.6z"/>
		<path d="M740.57,893.69c-5.48,0-10.61-3.44-12.48-8.91c-2.35-6.87,1.33-14.37,8.2-16.73l0,0c3.33-1.14,6.9-0.91,10.06,0.64
			c3.16,1.55,5.53,4.23,6.66,7.56c2.35,6.86-1.33,14.37-8.19,16.72C743.42,893.46,741.99,893.69,740.57,893.69z M738.88,875.6
			L738.88,875.6c-2.71,0.93-4.16,3.89-3.24,6.6c0.93,2.71,3.89,4.16,6.6,3.23c2.71-0.93,4.16-3.89,3.23-6.6
			c-0.45-1.31-1.38-2.37-2.63-2.98C741.6,875.24,740.19,875.15,738.88,875.6z"/>
		<path d="M1159.57,616.69c-5.48,0-10.61-3.44-12.48-8.91c-2.35-6.87,1.33-14.37,8.2-16.73l0,0c3.33-1.14,6.9-0.91,10.06,0.64
			c3.16,1.55,5.53,4.23,6.66,7.56c2.35,6.86-1.33,14.37-8.19,16.72C1162.42,616.46,1160.99,616.69,1159.57,616.69z M1157.88,598.6
			L1157.88,598.6c-2.71,0.93-4.16,3.89-3.24,6.6c0.93,2.71,3.89,4.16,6.6,3.23c2.71-0.93,4.16-3.89,3.23-6.6
			c-0.45-1.31-1.38-2.37-2.63-2.98C1160.6,598.24,1159.19,598.15,1157.88,598.6z"/>
		<path d="M1159.79,103.16c-5.48,0-10.6-3.44-12.48-8.91c-2.35-6.87,1.33-14.37,8.19-16.73c6.88-2.35,14.38,1.33,16.73,8.2
			c2.35,6.88-1.33,14.38-8.2,16.73C1162.64,102.94,1161.2,103.16,1159.79,103.16z M1159.77,84.79c-0.56,0-1.12,0.09-1.68,0.28
			c-2.71,0.93-4.16,3.89-3.23,6.6c0.93,2.71,3.89,4.17,6.6,3.23c2.71-0.93,4.16-3.89,3.23-6.6
			C1163.96,86.15,1161.93,84.79,1159.77,84.79z"/>
		<path d="M86.56,912.49c-1.98,0-3.95-0.45-5.78-1.35c-3.16-1.55-5.53-4.24-6.66-7.56c-1.14-3.33-0.91-6.9,0.63-10.06
			c1.55-3.16,4.23-5.53,7.56-6.67s6.9-0.92,10.06,0.63c3.16,1.55,5.53,4.24,6.66,7.57c1.14,3.32,0.91,6.9-0.63,10.06
			c-1.55,3.16-4.23,5.52-7.56,6.66C89.44,912.25,87.99,912.49,86.56,912.49z M86.58,894.12c-0.57,0-1.14,0.09-1.69,0.28l0,0
			c-1.31,0.45-2.37,1.38-2.98,2.63s-0.7,2.65-0.25,3.97c0.45,1.32,1.38,2.38,2.63,2.99c1.25,0.61,2.66,0.7,3.97,0.25
			c1.31-0.45,2.38-1.38,2.99-2.63c0.61-1.25,0.7-2.65,0.25-3.97c-0.45-1.32-1.38-2.38-2.63-2.99
			C88.14,894.3,87.36,894.12,86.58,894.12z"/>
	</g>

	<g class="part-two">
		<path d="M77.31,356.63c-1.98,0-3.95-0.45-5.78-1.35c-3.16-1.55-5.53-4.23-6.67-7.56c-2.35-6.88,1.33-14.38,8.2-16.73l0,0
			c6.87-2.35,14.37,1.33,16.73,8.2c2.35,6.87-1.33,14.37-8.2,16.72C80.19,356.39,78.75,356.63,77.31,356.63z M77.32,338.26
			c-0.56,0-1.12,0.09-1.68,0.28h0c-2.71,0.93-4.16,3.89-3.23,6.6c0.45,1.31,1.38,2.37,2.63,2.98c1.25,0.61,2.66,0.7,3.97,0.25
			c2.71-0.93,4.16-3.89,3.24-6.6C81.5,339.62,79.48,338.26,77.32,338.26z"/>
		<path d="M1201.54,298.71c-5.48,0-10.61-3.44-12.47-8.91c-2.35-6.87,1.33-14.38,8.2-16.73l0,0c6.87-2.35,14.37,1.33,16.73,8.2
			c2.35,6.87-1.33,14.37-8.19,16.73C1204.38,298.48,1202.95,298.71,1201.54,298.71z M1199.84,280.62L1199.84,280.62
			c-2.71,0.93-4.16,3.89-3.23,6.6c0.93,2.71,3.89,4.16,6.6,3.23c2.71-0.93,4.16-3.89,3.23-6.6
			C1205.51,281.14,1202.55,279.7,1199.84,280.62z"/>
		<path d="M897.57,938.69c-5.48,0-10.61-3.44-12.48-8.91c-2.35-6.87,1.33-14.37,8.2-16.73l0,0c3.33-1.14,6.9-0.91,10.06,0.64
			c3.16,1.55,5.53,4.23,6.66,7.56c2.35,6.86-1.33,14.37-8.19,16.72C900.42,938.46,898.99,938.69,897.57,938.69z M895.88,920.6
			L895.88,920.6c-2.71,0.93-4.16,3.89-3.24,6.6c0.93,2.71,3.89,4.16,6.6,3.23c2.71-0.93,4.16-3.89,3.23-6.6
			c-0.45-1.31-1.38-2.37-2.63-2.98C898.6,920.24,897.19,920.15,895.88,920.6z"/>
		<path d="M767.57,730.69c-5.48,0-10.61-3.44-12.48-8.91c-2.35-6.87,1.33-14.37,8.2-16.73l0,0c3.33-1.14,6.9-0.91,10.06,0.64
			c3.16,1.55,5.53,4.23,6.66,7.56c2.35,6.86-1.33,14.37-8.19,16.72C770.42,730.46,768.99,730.69,767.57,730.69z M765.88,712.6
			L765.88,712.6c-2.71,0.93-4.16,3.89-3.24,6.6c0.93,2.71,3.89,4.16,6.6,3.23c2.71-0.93,4.16-3.89,3.23-6.6
			c-0.45-1.31-1.38-2.37-2.63-2.98C768.6,712.24,767.19,712.15,765.88,712.6z"/>
		<path d="M485.57,173.69c-5.48,0-10.61-3.44-12.48-8.91c-2.35-6.87,1.33-14.37,8.2-16.73l0,0c3.33-1.14,6.9-0.91,10.06,0.64
			c3.16,1.55,5.53,4.23,6.66,7.56c2.35,6.86-1.33,14.37-8.19,16.72C488.42,173.46,486.99,173.69,485.57,173.69z M483.88,155.6
			L483.88,155.6c-2.71,0.93-4.16,3.89-3.24,6.6c0.93,2.71,3.89,4.16,6.6,3.23c2.71-0.93,4.16-3.89,3.23-6.6
			c-0.45-1.31-1.38-2.37-2.63-2.98C486.6,155.24,485.19,155.15,483.88,155.6z"/>
	</g>

	<g class="part-three">

		<path d="M68.12,673.66c-1.98,0-3.95-0.45-5.78-1.35c-3.16-1.55-5.53-4.23-6.66-7.56c-1.14-3.33-0.91-6.9,0.63-10.06
			c1.55-3.16,4.23-5.53,7.56-6.67h0c6.87-2.35,14.38,1.33,16.73,8.2c2.35,6.87-1.33,14.37-8.2,16.72
			C71,673.42,69.56,673.66,68.12,673.66z M66.45,655.56L66.45,655.56c-1.31,0.45-2.37,1.38-2.98,2.63c-0.61,1.25-0.7,2.66-0.25,3.97
			c0.45,1.31,1.38,2.37,2.63,2.98c1.25,0.61,2.66,0.7,3.97,0.25c2.71-0.93,4.16-3.89,3.24-6.6
			C72.13,656.09,69.17,654.63,66.45,655.56z"/>
		<path d="M330.57,121.32c-1.98,0-3.95-0.45-5.78-1.35c-3.16-1.55-5.53-4.23-6.67-7.56c-1.14-3.33-0.91-6.9,0.63-10.06
			c1.55-3.16,4.23-5.52,7.56-6.66l0,0c3.33-1.14,6.9-0.92,10.06,0.63c3.16,1.55,5.53,4.23,6.67,7.56c2.35,6.87-1.33,14.37-8.2,16.72
			C333.45,121.09,332,121.32,330.57,121.32z M330.59,102.95c-0.57,0-1.14,0.09-1.69,0.28l0,0c-1.31,0.45-2.37,1.38-2.98,2.63
			c-0.61,1.25-0.7,2.66-0.25,3.97c0.45,1.31,1.38,2.37,2.63,2.98c1.25,0.61,2.66,0.7,3.97,0.25c2.71-0.93,4.16-3.89,3.24-6.6
			c-0.45-1.31-1.38-2.38-2.63-2.99C332.14,103.13,331.37,102.95,330.59,102.95z"/>
		<path d="M956.91,83.85c-5.48,0-10.6-3.44-12.47-8.91c-1.14-3.33-0.92-6.9,0.63-10.06c1.55-3.16,4.24-5.53,7.57-6.67v0
			c3.33-1.14,6.9-0.91,10.06,0.64c3.16,1.55,5.53,4.23,6.66,7.56c1.14,3.33,0.91,6.9-0.63,10.06c-1.55,3.16-4.23,5.53-7.56,6.67
			C959.75,83.63,958.32,83.85,956.91,83.85z M955.21,65.77c-1.31,0.45-2.38,1.38-2.99,2.63c-0.61,1.25-0.7,2.65-0.25,3.97
			c0.93,2.71,3.89,4.17,6.6,3.24c1.31-0.45,2.37-1.38,2.98-2.63c0.61-1.25,0.7-2.66,0.25-3.97c-0.45-1.31-1.38-2.37-2.63-2.98
			C957.94,65.41,956.53,65.32,955.21,65.77L955.21,65.77z"/>
		<path d="M491.1,818.41c-5.48,0-10.61-3.44-12.47-8.91c-1.14-3.33-0.92-6.9,0.63-10.06c1.55-3.16,4.23-5.53,7.56-6.67l0,0
			c6.88-2.35,14.38,1.33,16.73,8.2c2.35,6.87-1.33,14.37-8.2,16.72C493.95,818.18,492.51,818.41,491.1,818.41z M489.41,800.32
			L489.41,800.32c-1.31,0.45-2.37,1.38-2.98,2.63s-0.7,2.66-0.25,3.97c0.93,2.71,3.88,4.16,6.6,3.24c2.71-0.93,4.16-3.89,3.23-6.6
			C495.08,800.85,492.12,799.4,489.41,800.32z"/>
		<path d="M640.1,1002.41c-5.48,0-10.61-3.44-12.47-8.91c-1.14-3.33-0.92-6.9,0.63-10.06c1.55-3.16,4.23-5.53,7.56-6.67l0,0
			c6.88-2.35,14.38,1.33,16.73,8.2c2.35,6.87-1.33,14.37-8.2,16.72C642.95,1002.18,641.51,1002.41,640.1,1002.41z M638.41,984.32
			L638.41,984.32c-1.31,0.45-2.37,1.38-2.98,2.63s-0.7,2.66-0.25,3.97c0.93,2.71,3.88,4.16,6.6,3.24c2.71-0.93,4.16-3.89,3.23-6.6
			C644.08,984.85,641.12,983.4,638.41,984.32z"/>
		<path d="M258.68,721.04c-6.86,0-12.66-5.32-13.14-12.26c-0.5-7.25,4.99-13.55,12.23-14.05h0c7.22-0.51,13.54,4.98,14.05,12.23
			c0.5,7.24-4.98,13.54-12.23,14.05C259.29,721.03,258.98,721.04,258.68,721.04z M258.32,702.68c-2.86,0.2-5.02,2.69-4.82,5.54
			c0.2,2.86,2.68,5.01,5.54,4.82c2.86-0.2,5.02-2.69,4.83-5.54C263.67,704.65,261.2,702.5,258.32,702.68L258.32,702.68z"/>
		<path d="M622.01,664.87c-5.48,0-10.6-3.44-12.47-8.91c-2.35-6.87,1.32-14.37,8.19-16.73l0,0c6.87-2.35,14.38,1.33,16.73,8.2
			c2.35,6.87-1.33,14.37-8.2,16.72C624.86,664.64,623.42,664.87,622.01,664.87z M620.32,646.79L620.32,646.79
			c-2.71,0.93-4.16,3.89-3.23,6.6s3.89,4.16,6.6,3.23c2.71-0.93,4.16-3.89,3.23-6.6C625.99,647.31,623.02,645.86,620.32,646.79z"/>
		<path d="M1059.47,355.95c-5.48,0-10.6-3.44-12.48-8.91c-2.35-6.87,1.33-14.38,8.2-16.73l0,0c6.88-2.35,14.38,1.33,16.72,8.2
			c2.35,6.87-1.33,14.37-8.2,16.72C1062.32,355.72,1060.88,355.95,1059.47,355.95z M1057.78,337.86L1057.78,337.86
			c-2.71,0.93-4.16,3.89-3.23,6.6c0.93,2.71,3.89,4.17,6.6,3.23c2.71-0.93,4.16-3.89,3.23-6.6
			C1063.45,338.38,1060.49,336.94,1057.78,337.86z"/>
		<path d="M279.57,607.69c-5.48,0-10.61-3.44-12.48-8.91c-2.35-6.87,1.33-14.37,8.2-16.73l0,0c3.33-1.14,6.9-0.91,10.06,0.64
			c3.16,1.55,5.53,4.23,6.66,7.56c2.35,6.86-1.33,14.37-8.19,16.72C282.42,607.46,280.99,607.69,279.57,607.69z M277.88,589.6
			L277.88,589.6c-2.71,0.93-4.16,3.89-3.24,6.6c0.93,2.71,3.89,4.16,6.6,3.23c2.71-0.93,4.16-3.89,3.23-6.6
			c-0.45-1.31-1.38-2.37-2.63-2.98C280.6,589.24,279.19,589.15,277.88,589.6z"/>
		<path d="M138.12,533.66c-1.98,0-3.95-0.45-5.78-1.35c-3.16-1.55-5.53-4.23-6.66-7.56c-1.14-3.33-0.91-6.9,0.63-10.06
			c1.55-3.16,4.23-5.53,7.56-6.67h0c6.87-2.35,14.38,1.33,16.73,8.2c2.35,6.87-1.33,14.37-8.2,16.72
			C141,533.42,139.56,533.66,138.12,533.66z M136.45,515.56L136.45,515.56c-1.31,0.45-2.37,1.38-2.98,2.63
			c-0.61,1.25-0.7,2.66-0.25,3.97c0.45,1.31,1.38,2.37,2.63,2.98c1.25,0.61,2.66,0.7,3.97,0.25c2.71-0.93,4.16-3.89,3.24-6.6
			C142.13,516.09,139.16,514.64,136.45,515.56z"/>
		<path d="M523.91,356.85c-5.48,0-10.6-3.44-12.47-8.91c-1.14-3.33-0.92-6.9,0.63-10.06c1.55-3.16,4.24-5.53,7.57-6.67v0
			c3.33-1.14,6.9-0.91,10.06,0.64c3.16,1.55,5.53,4.23,6.66,7.56c1.14,3.33,0.91,6.9-0.63,10.06c-1.55,3.16-4.23,5.53-7.56,6.67
			C526.75,356.63,525.32,356.85,523.91,356.85z M522.21,338.77c-1.31,0.45-2.38,1.38-2.99,2.63c-0.61,1.25-0.7,2.65-0.25,3.97
			c0.93,2.71,3.89,4.17,6.6,3.24c1.31-0.45,2.37-1.38,2.98-2.63c0.61-1.25,0.7-2.66,0.25-3.97c-0.45-1.31-1.38-2.37-2.63-2.98
			S523.53,338.32,522.21,338.77L522.21,338.77z"/>
		<path d="M270.81,213.01c-5.48,0-10.61-3.45-12.48-8.91c-2.35-6.87,1.33-14.37,8.2-16.73l0,0c6.87-2.35,14.37,1.33,16.73,8.2
			c2.35,6.87-1.33,14.37-8.2,16.73C273.66,212.78,272.23,213.01,270.81,213.01z M269.12,194.92L269.12,194.92
			c-2.71,0.93-4.16,3.89-3.23,6.6c0.93,2.71,3.89,4.16,6.6,3.23c2.71-0.93,4.16-3.89,3.23-6.6
			C274.79,195.45,271.83,194,269.12,194.92z"/>
		<path d="M188.04,860.57c-6.86,0-12.65-5.32-13.13-12.26c-0.25-3.51,0.89-6.9,3.2-9.56c2.31-2.65,5.51-4.25,9.02-4.49h0
			c7.25-0.52,13.55,4.99,14.05,12.23c0.5,7.24-4.98,13.54-12.23,14.05C188.65,860.55,188.34,860.57,188.04,860.57z M187.68,842.21
			L187.68,842.21c-1.38,0.1-2.65,0.73-3.56,1.77c-0.91,1.05-1.36,2.39-1.26,3.77c0.2,2.86,2.68,5.02,5.54,4.83
			c2.86-0.2,5.02-2.69,4.82-5.54C193.03,844.18,190.52,842.02,187.68,842.21z"/>
		<path d="M673.01,513.87c-5.48,0-10.6-3.44-12.47-8.91c-2.35-6.87,1.32-14.37,8.19-16.73l0,0c6.87-2.35,14.38,1.33,16.73,8.2
			c2.35,6.87-1.33,14.37-8.2,16.72C675.86,513.64,674.42,513.87,673.01,513.87z M671.32,495.79L671.32,495.79
			c-2.71,0.93-4.16,3.89-3.23,6.6s3.89,4.17,6.6,3.23c2.71-0.93,4.16-3.89,3.23-6.6C676.99,496.31,674.02,494.86,671.32,495.79z"/>
		<path d="M932.54,402.71c-5.48,0-10.61-3.44-12.47-8.91c-2.35-6.87,1.33-14.38,8.2-16.73l0,0c6.87-2.34,14.37,1.33,16.73,8.2
			c2.35,6.87-1.33,14.37-8.19,16.73C935.38,402.48,933.95,402.71,932.54,402.71z M930.84,384.62L930.84,384.62
			c-2.71,0.93-4.16,3.89-3.23,6.6c0.93,2.71,3.89,4.16,6.6,3.23c2.71-0.93,4.16-3.89,3.23-6.6
			C936.51,385.14,933.55,383.7,930.84,384.62z"/>
		<path d="M1006.26,535c-5.48,0-10.61-3.44-12.48-8.91c-2.35-6.87,1.33-14.38,8.2-16.73l0,0c6.87-2.34,14.37,1.33,16.73,8.2
			c2.35,6.87-1.33,14.37-8.19,16.73C1009.11,534.77,1007.67,535,1006.26,535z M1004.57,516.91L1004.57,516.91
			c-2.71,0.93-4.16,3.89-3.23,6.6c0.93,2.71,3.89,4.17,6.6,3.23c2.71-0.93,4.16-3.89,3.23-6.6S1007.28,515.99,1004.57,516.91z"/>
		<path d="M1043.26,903c-5.48,0-10.61-3.44-12.48-8.91c-2.35-6.87,1.33-14.38,8.2-16.73l0,0c6.87-2.34,14.37,1.33,16.73,8.2
			c2.35,6.87-1.33,14.37-8.19,16.73C1046.11,902.77,1044.67,903,1043.26,903z M1041.57,884.91L1041.57,884.91
			c-2.71,0.93-4.16,3.89-3.23,6.6c0.93,2.71,3.89,4.17,6.6,3.23c2.71-0.93,4.16-3.89,3.23-6.6
			C1047.24,885.44,1044.28,883.99,1041.57,884.91z"/>
		<path d="M1135.26,763c-5.48,0-10.61-3.44-12.48-8.91c-2.35-6.87,1.33-14.38,8.2-16.73l0,0c6.87-2.34,14.37,1.33,16.73,8.2
			c2.35,6.87-1.33,14.37-8.19,16.73C1138.11,762.77,1136.67,763,1135.26,763z M1133.57,744.91L1133.57,744.91
			c-2.71,0.93-4.16,3.89-3.23,6.6c0.93,2.71,3.89,4.17,6.6,3.23c2.71-0.93,4.16-3.89,3.23-6.6
			C1139.24,745.44,1136.28,743.99,1133.57,744.91z"/>
		<path d="M758.34,375.55c-5.48,0-10.6-3.44-12.48-8.91c-2.35-6.87,1.33-14.38,8.2-16.73l0,0c6.87-2.34,14.37,1.33,16.73,8.2
			c2.35,6.87-1.33,14.37-8.2,16.73C761.18,375.32,759.75,375.55,758.34,375.55z M756.64,357.46L756.64,357.46
			c-2.71,0.93-4.16,3.89-3.23,6.6c0.93,2.71,3.89,4.17,6.6,3.23c2.71-0.93,4.16-3.89,3.23-6.6
			C762.31,357.98,759.36,356.53,756.64,357.46z"/>
		<path d="M1107.9,194.94c-5.48,0-10.6-3.44-12.48-8.9c-2.35-6.87,1.33-14.38,8.2-16.73l0,0c6.88-2.35,14.38,1.33,16.73,8.2
			c2.35,6.87-1.33,14.37-8.2,16.73C1110.75,194.71,1109.31,194.94,1107.9,194.94z M1106.21,176.85c-2.71,0.93-4.16,3.89-3.23,6.6
			c0.93,2.71,3.9,4.16,6.6,3.23c2.71-0.93,4.16-3.89,3.23-6.6C1111.88,177.38,1108.92,175.93,1106.21,176.85z"/>
	</g>

	<g class="part-four">
		<path d="M870.17,191.74c-5.48,0-10.6-3.44-12.48-8.91c-2.35-6.88,1.33-14.38,8.2-16.73c3.33-1.14,6.9-0.91,10.06,0.64
			c3.16,1.55,5.53,4.23,6.67,7.56c2.35,6.86-1.33,14.37-8.2,16.72C873.02,191.51,871.58,191.74,870.17,191.74z M870.15,173.37
			c-0.56,0-1.12,0.09-1.68,0.28c-2.71,0.93-4.16,3.89-3.23,6.6c0.93,2.71,3.89,4.16,6.6,3.23c2.71-0.93,4.16-3.89,3.23-6.6
			C874.34,174.73,872.31,173.37,870.15,173.37z"/>
		<path d="M428.1,956.41c-5.48,0-10.61-3.44-12.47-8.91c-1.14-3.33-0.92-6.9,0.63-10.06c1.55-3.16,4.23-5.53,7.56-6.67l0,0
			c6.88-2.35,14.38,1.33,16.73,8.2c2.35,6.87-1.33,14.37-8.2,16.72C430.95,956.18,429.51,956.41,428.1,956.41z M426.41,938.32
			L426.41,938.32c-1.31,0.45-2.37,1.38-2.98,2.63s-0.7,2.66-0.25,3.97c0.93,2.71,3.88,4.16,6.6,3.24c2.71-0.93,4.16-3.89,3.23-6.6
			C432.08,938.85,429.12,937.4,426.41,938.32z"/>
		<path d="M938.26,683c-5.48,0-10.61-3.44-12.48-8.91c-2.35-6.87,1.33-14.38,8.2-16.73l0,0c6.87-2.35,14.37,1.33,16.73,8.2
			c2.35,6.87-1.33,14.37-8.19,16.73C941.11,682.77,939.67,683,938.26,683z M936.57,664.91L936.57,664.91
			c-2.71,0.93-4.16,3.89-3.23,6.6s3.89,4.16,6.6,3.23c2.71-0.93,4.16-3.89,3.23-6.6C942.24,665.44,939.28,663.99,936.57,664.91z"/>
		<path d="M67.97,182.86c-5.48,0-10.61-3.44-12.48-8.91c-2.35-6.87,1.33-14.38,8.2-16.73l0,0c6.87-2.35,14.37,1.33,16.73,8.2
			c2.35,6.87-1.33,14.37-8.19,16.73C70.81,182.63,69.38,182.86,67.97,182.86z M66.27,164.77c-2.71,0.93-4.16,3.89-3.23,6.6
			c0.93,2.71,3.88,4.16,6.6,3.23c2.71-0.93,4.16-3.89,3.23-6.6C71.94,165.29,68.98,163.84,66.27,164.77L66.27,164.77z"/>
		<path d="M458.37,479.72c-5.48,0-10.61-3.44-12.48-8.91c-2.35-6.87,1.33-14.37,8.2-16.73l0,0c6.87-2.35,14.37,1.33,16.73,8.2
			c2.35,6.87-1.33,14.37-8.2,16.73C461.22,479.49,459.78,479.72,458.37,479.72z M456.68,461.63L456.68,461.63
			c-2.71,0.93-4.16,3.89-3.24,6.6c0.93,2.71,3.89,4.16,6.6,3.23c2.71-0.93,4.16-3.89,3.23-6.6
			C462.35,462.16,459.39,460.71,456.68,461.63z"/>
	</g>

	<g class="part-one">
		<path d="M469.9,537.52l8.18-14.54c0.39-0.7,1.21-1.04,1.98-0.83l8.03,2.19c1.11,0.3,1.63,1.59,1.04,2.57l-19.87,33.16
			c-0.4,0.67-1.2,0.99-1.95,0.78l-9.85-2.69c-0.75-0.2-1.27-0.87-1.28-1.65l-0.36-19.59c-0.03-1.71-2.26-2.35-3.2-0.92
			l-10.88,16.63c-0.41,0.63-1.19,0.93-1.91,0.73l-9.72-2.65c-0.75-0.2-1.27-0.88-1.28-1.65l-0.56-38.73
			c-0.02-1.16,1.08-2.01,2.2-1.7l10.13,2.76c0.77,0.21,1.3,0.92,1.28,1.72l-0.44,16.85c-0.05,1.79,2.32,2.48,3.24,0.93l8.7-14.69
			c0.4-0.67,1.2-1,1.96-0.79l9.89,2.7c0.75,0.2,1.28,0.88,1.28,1.66l0.15,16.91C466.65,538.46,469.02,539.07,469.9,537.52z"/>
		<path d="M540.57,557.82l-2.94-11.86c-0.23-0.93-1.18-1.5-2.11-1.27l-10.32,2.56c-0.93,0.23-1.5,1.18-1.27,2.11l2.94,11.86
			c0.23,0.93-0.34,1.88-1.27,2.11l-9.31,2.31c-0.93,0.23-1.88-0.34-2.11-1.27l-8.95-36.12c-0.23-0.93,0.34-1.88,1.27-2.11
			l9.31-2.31c0.93-0.23,1.88,0.34,2.11,1.27l2.88,11.63c0.23,0.93,1.18,1.5,2.11,1.27l10.32-2.56c0.93-0.23,1.5-1.18,1.27-2.11
			l-2.88-11.63c-0.23-0.93,0.34-1.88,1.27-2.11l9.31-2.31c0.93-0.23,1.88,0.34,2.11,1.27l8.95,36.12c0.23,0.93-0.34,1.88-1.27,2.11
			l-9.31,2.31C541.75,559.32,540.8,558.75,540.57,557.82z"/>
		<path d="M584.82,536.81l-24.18-28.28c-0.62-0.73-0.54-1.83,0.19-2.45l22.34-19.1c0.73-0.62,1.83-0.54,2.45,0.19l3.85,4.51
			c0.62,0.73,0.54,1.83-0.19,2.45l-12.4,10.6c-0.73,0.62-0.82,1.72-0.19,2.45l1.91,2.23c0.62,0.73,1.72,0.82,2.45,0.19l9.29-7.94
			c0.73-0.62,1.83-0.54,2.45,0.19l3.26,3.81c0.62,0.73,0.54,1.83-0.19,2.45l-9.29,7.94c-0.73,0.62-0.82,1.72-0.19,2.45l2.26,2.65
			c0.62,0.73,1.72,0.82,2.45,0.19l12.64-10.8c0.73-0.62,1.83-0.54,2.45,0.19l3.85,4.5c0.62,0.73,0.54,1.83-0.19,2.45L587.28,537
			C586.55,537.63,585.45,537.54,584.82,536.81z"/>
		<path d="M624.66,503.96l-16.46-33.38c-0.43-0.86-0.07-1.91,0.79-2.33l26.37-13c0.86-0.43,1.91-0.07,2.33,0.79l2.62,5.32
			c0.42,0.86,0.07,1.91-0.79,2.33l-14.64,7.22c-0.86,0.43-1.22,1.47-0.79,2.33l1.3,2.63c0.43,0.86,1.47,1.22,2.33,0.79l10.96-5.41
			c0.86-0.43,1.91-0.07,2.33,0.79l2.22,4.5c0.43,0.86,0.07,1.91-0.79,2.33l-10.96,5.41c-0.86,0.43-1.22,1.47-0.79,2.33l1.54,3.13
			c0.43,0.86,1.47,1.22,2.33,0.79l14.91-7.35c0.86-0.43,1.91-0.07,2.33,0.79l2.62,5.32c0.43,0.86,0.07,1.91-0.79,2.33l-26.64,13.14
			C626.13,505.18,625.09,504.82,624.66,503.96z"/>
		<path d="M673.38,483.38l-3.29-37.06c-0.09-0.96,0.62-1.8,1.58-1.89l9.55-0.85c0.96-0.09,1.8,0.62,1.89,1.58l2.45,27.57
			c0.09,0.96,0.93,1.67,1.89,1.58l15.52-1.38c0.96-0.09,1.8,0.62,1.89,1.58l0.54,6.02c0.09,0.96-0.62,1.8-1.58,1.89l-28.54,2.54
			C674.31,485.05,673.46,484.34,673.38,483.38z"/>
		<path d="M725.5,482.08l8.77-36.17c0.23-0.93,1.17-1.51,2.1-1.28l9.32,2.26c0.93,0.23,1.51,1.17,1.28,2.1l-8.77,36.17
			c-0.23,0.93-1.17,1.51-2.1,1.28l-9.32-2.26C725.84,483.96,725.27,483.02,725.5,482.08z"/>
		<path d="M759.19,493.68l22.85-29.38c0.59-0.76,1.68-0.9,2.44-0.31l23.2,18.05c0.76,0.59,0.9,1.68,0.31,2.44l-3.64,4.68
			c-0.59,0.76-1.68,0.9-2.44,0.31l-12.88-10.02c-0.76-0.59-1.85-0.45-2.44,0.31l-1.8,2.32c-0.59,0.76-0.45,1.85,0.31,2.44l9.65,7.5
			c0.76,0.59,0.9,1.68,0.31,2.44l-3.08,3.96c-0.59,0.76-1.68,0.9-2.44,0.31l-9.65-7.5c-0.76-0.59-1.85-0.45-2.44,0.31l-2.14,2.75
			c-0.59,0.76-0.45,1.85,0.31,2.44l13.12,10.2c0.76,0.59,0.9,1.68,0.31,2.44l-3.64,4.68c-0.59,0.76-1.68,0.9-2.44,0.31
			l-23.44-18.23C758.73,495.53,758.6,494.44,759.19,493.68z"/>
		<path d="M825.59,542.65c-7.33-1.96-13.16-6.29-16.88-10.92c-0.55-0.69-0.46-1.69,0.17-2.31l3.91-3.84
			c0.72-0.71,1.89-0.67,2.53,0.11c3.16,3.87,8.3,7.52,12.9,8.75c2.77,0.74,4.83,0.6,5.31-1.18c0.54-2.01-1.71-3.55-6.8-6.49
			c-10.57-6.11-13.55-10.57-11.57-18c1.76-6.61,8.66-10.2,20.82-6.96c5.95,1.59,11.13,4.49,15.36,9.3
			c0.58,0.66,0.55,1.68-0.05,2.33l-3.54,3.83c-0.68,0.74-1.83,0.72-2.54,0c-3.49-3.56-7.81-6.16-11.74-7.21
			c-2.95-0.79-4.92-0.74-5.38,0.97c-0.53,2.01,0.72,3.23,6.77,6.61c9.68,5.43,13.6,10.39,11.79,17.18
			C844.99,541,839.93,546.48,825.59,542.65z"/>
		<path d="M470.31,464.99h-2.56c-0.07,0-0.14,0.04-0.17,0.11l-1.69,3.61l-1.95-3.62c-0.03-0.06-0.1-0.1-0.17-0.1h-2.69
			c-0.07,0-0.13,0.03-0.16,0.09c-0.03,0.06-0.03,0.13,0,0.19l3.5,6.15l-1.81,3.69c-0.03,0.06-0.03,0.13,0.01,0.18
			c0.03,0.06,0.09,0.09,0.16,0.09h2.57c0.07,0,0.14-0.04,0.17-0.1l4.96-10.01c0.03-0.06,0.03-0.13-0.01-0.18
			C470.43,465.02,470.37,464.99,470.31,464.99z"/>
		<path d="M481.42,464.99h-2.32c-0.1,0-0.19,0.08-0.19,0.19v6.48c0,1.01-0.56,1.6-1.54,1.6c-0.96,0-1.54-0.6-1.54-1.6v-6.48
			c0-0.1-0.08-0.19-0.19-0.19h-2.3c-0.1,0-0.19,0.08-0.19,0.19v6.62c0,2.37,1.62,3.83,4.22,3.83c2.61,0,4.23-1.47,4.23-3.83v-6.62
			C481.61,465.07,481.53,464.99,481.42,464.99z"/>
		<path d="M496.36,464.99h-2.63c-0.08,0-0.15,0.05-0.18,0.12l-2.48,6.64l-2.48-6.64c-0.03-0.07-0.1-0.12-0.18-0.12h-2.69
			c-0.1,0-0.19,0.08-0.19,0.19v10.01c0,0.1,0.08,0.19,0.19,0.19h2.22c0.1,0,0.19-0.08,0.19-0.19v-5.42l1.91,5.48
			c0.03,0.08,0.1,0.13,0.18,0.13h1.71c0.08,0,0.15-0.05,0.18-0.13l1.85-5.42v5.36c0,0.1,0.08,0.19,0.19,0.19h2.22
			c0.1,0,0.19-0.08,0.19-0.19v-10.01C496.54,465.07,496.46,464.99,496.36,464.99z"/>
		<path d="M515,464.99h-2.56c-0.07,0-0.14,0.04-0.17,0.11l-1.69,3.61l-1.95-3.62c-0.03-0.06-0.1-0.1-0.17-0.1h-2.69
			c-0.07,0-0.13,0.03-0.16,0.09c-0.03,0.06-0.03,0.13,0,0.19l3.5,6.15l-1.81,3.69c-0.03,0.06-0.03,0.13,0.01,0.18
			c0.03,0.06,0.09,0.09,0.16,0.09h2.57c0.07,0,0.14-0.04,0.17-0.1l4.96-10.01c0.03-0.06,0.03-0.13-0.01-0.18
			C515.13,465.02,515.07,464.99,515,464.99z"/>
		<path d="M526.12,464.99h-2.32c-0.1,0-0.19,0.08-0.19,0.19v6.48c0,1.01-0.56,1.6-1.54,1.6c-0.96,0-1.54-0.6-1.54-1.6v-6.48
			c0-0.1-0.08-0.19-0.19-0.19h-2.3c-0.1,0-0.19,0.08-0.19,0.19v6.62c0,2.37,1.62,3.83,4.22,3.83c2.61,0,4.23-1.47,4.23-3.83v-6.62
			C526.31,465.07,526.22,464.99,526.12,464.99z"/>
		<path d="M541.05,464.99h-2.63c-0.08,0-0.15,0.05-0.18,0.12l-2.48,6.64l-2.48-6.64c-0.03-0.07-0.1-0.12-0.18-0.12h-2.69
			c-0.1,0-0.19,0.08-0.19,0.19v10.01c0,0.1,0.08,0.19,0.19,0.19h2.22c0.1,0,0.19-0.08,0.19-0.19v-5.42l1.91,5.48
			c0.03,0.08,0.1,0.13,0.18,0.13h1.71c0.08,0,0.15-0.05,0.18-0.13l1.85-5.42v5.36c0,0.1,0.08,0.19,0.19,0.19h2.22
			c0.1,0,0.19-0.08,0.19-0.19v-10.01C541.24,465.07,541.16,464.99,541.05,464.99z"/>
		<ellipse cx="501.07" cy="493.5" rx="1.6" ry="1.59"/>
		<path d="M669.06,523.08h2.56v7.76c0,0.1,0.08,0.19,0.19,0.19h2.3c0.1,0,0.19-0.08,0.19-0.19v-7.76h2.57
			c0.1,0,0.19-0.08,0.19-0.19v-2.06c0-0.1-0.08-0.19-0.19-0.19h-7.81c-0.1,0-0.19,0.08-0.19,0.19v2.06
			C668.88,522.99,668.96,523.08,669.06,523.08z"/>
		<path d="M680.49,531.03h2.32c0.1,0,0.19-0.08,0.19-0.19v-10.01c0-0.1-0.08-0.19-0.19-0.19h-2.32c-0.1,0-0.19,0.08-0.19,0.19
			v10.01C680.3,530.94,680.39,531.03,680.49,531.03z"/>
		<path d="M687.33,531.03h2.22c0.1,0,0.19-0.08,0.19-0.19v-5.73l3.12,5.82c0.03,0.06,0.1,0.1,0.17,0.1h2.37
			c0.1,0,0.19-0.08,0.19-0.19v-10.01c0-0.1-0.08-0.19-0.19-0.19h-2.22c-0.1,0-0.19,0.08-0.19,0.19v5.73l-3.12-5.82
			c-0.03-0.06-0.1-0.1-0.17-0.1h-2.37c-0.1,0-0.19,0.08-0.19,0.19v10.01C687.14,530.94,687.23,531.03,687.33,531.03z"/>
		<path d="M699.92,531.03h2.32c0.1,0,0.19-0.08,0.19-0.19v-10.01c0-0.1-0.08-0.19-0.19-0.19h-2.32c-0.1,0-0.19,0.08-0.19,0.19
			v10.01C699.74,530.94,699.82,531.03,699.92,531.03z"/>
		<path d="M706.76,531.03h6.12c0.1,0,0.19-0.08,0.19-0.19v-1.86c0-0.1-0.08-0.19-0.19-0.19h-3.62v-1.83h3.62
			c0.1,0,0.19-0.08,0.19-0.19v-1.82c0-0.1-0.08-0.19-0.19-0.19h-3.62v-1.9h3.62c0.1,0,0.19-0.08,0.19-0.19v-1.86
			c0-0.1-0.08-0.19-0.19-0.19h-6.12c-0.1,0-0.19,0.08-0.19,0.19v10.01C706.57,530.94,706.66,531.03,706.76,531.03z"/>
		<path d="M720.58,531.31c2.31,0,3.86-1.32,3.86-3.27c0-1.45-0.7-2.43-2.13-2.99l-1.66-0.66c-1.05-0.42-1.26-0.73-1.26-1.13
			c0-0.51,0.37-0.8,1.01-0.8c0.79,0,1.2,0.42,1.2,1.26c0,0.1,0.08,0.19,0.19,0.19h2.32c0.1,0,0.19-0.08,0.19-0.19
			c0-2.01-1.55-3.36-3.85-3.36c-2.28,0-3.75,1.22-3.75,3.12c0,1.38,0.74,2.38,2.15,2.91l1.8,0.7c0.93,0.37,1.1,0.65,1.1,1.11
			c0,0.76-0.63,0.91-1.16,0.91c-0.92,0-1.44-0.56-1.44-1.54c0-0.1-0.08-0.19-0.19-0.19h-2.32c-0.1,0-0.19,0.08-0.19,0.19
			C716.46,529.91,718,531.31,720.58,531.31z"/>
		<path d="M727.28,523.08h2.56v7.76c0,0.1,0.08,0.19,0.19,0.19h2.3c0.1,0,0.19-0.08,0.19-0.19v-7.76h2.57
			c0.1,0,0.19-0.08,0.19-0.19v-2.06c0-0.1-0.08-0.19-0.19-0.19h-7.81c-0.1,0-0.19,0.08-0.19,0.19v2.06
			C727.09,522.99,727.17,523.08,727.28,523.08z"/>
		<path d="M655.29,545.34h-3.78c-0.1,0-0.19,0.08-0.19,0.19v10.01c0,0.1,0.08,0.19,0.19,0.19h3.78c3.11,0,5.29-2.13,5.29-5.19
			C660.58,547.47,658.41,545.34,655.29,545.34z M657.82,550.53c0,1.43-0.85,2.87-2.74,2.87h-1.06v-5.74h1.06
			C656.97,547.66,657.82,549.1,657.82,550.53z"/>
		<path d="M669.05,545.05c-2.75,0-5.53,1.88-5.53,5.48s2.78,5.48,5.53,5.48s5.54-1.88,5.54-5.48S671.8,545.05,669.05,545.05z
			 M671.8,550.53c0,1.51-0.85,3.03-2.74,3.03c-0.77,0-1.43-0.26-1.91-0.74c-0.55-0.55-0.84-1.36-0.83-2.29
			c-0.01-0.93,0.29-1.74,0.83-2.29c0.48-0.49,1.14-0.74,1.91-0.74C670.95,547.5,671.8,549.03,671.8,550.53z"/>
		<path d="M686.58,555.54v-10.01c0-0.1-0.08-0.19-0.19-0.19h-2.22c-0.1,0-0.19,0.08-0.19,0.19v5.73l-3.12-5.82
			c-0.03-0.06-0.1-0.1-0.17-0.1h-2.37c-0.1,0-0.19,0.08-0.19,0.19v10.01c0,0.1,0.08,0.19,0.19,0.19h2.22
			c0.1,0,0.19-0.08,0.19-0.19v-5.73l3.12,5.82c0.03,0.06,0.1,0.1,0.17,0.1h2.37C686.49,555.72,686.58,555.64,686.58,555.54z"/>
		<path d="M698.96,545.53c0-0.1-0.08-0.19-0.19-0.19h-2.32c-0.1,0-0.19,0.08-0.19,0.19v6.48c0,1.02-0.56,1.6-1.54,1.6
			c-0.96,0-1.54-0.6-1.54-1.6v-6.48c0-0.1-0.08-0.19-0.19-0.19h-2.3c-0.1,0-0.19,0.08-0.19,0.19v6.62c0,2.36,1.62,3.83,4.22,3.83
			c2.61,0,4.23-1.47,4.23-3.83V545.53z"/>
		<path d="M710.16,547.59v-2.06c0-0.1-0.08-0.19-0.19-0.19h-7.81c-0.1,0-0.19,0.08-0.19,0.19v2.06c0,0.1,0.08,0.19,0.19,0.19h2.56
			v7.76c0,0.1,0.08,0.19,0.19,0.19h2.3c0.1,0,0.19-0.08,0.19-0.19v-7.76h2.57C710.07,547.78,710.16,547.69,710.16,547.59z"/>
		<path d="M718.61,549.74l-1.66-0.66c-1.05-0.43-1.25-0.74-1.25-1.13c0-0.51,0.37-0.8,1.01-0.8c0.8,0,1.2,0.42,1.2,1.26
			c0,0.1,0.08,0.19,0.19,0.19h2.32c0.1,0,0.19-0.08,0.19-0.19c0-2.01-1.55-3.36-3.85-3.36c-2.24,0-3.75,1.25-3.75,3.12
			c0,1.38,0.74,2.38,2.15,2.91l1.8,0.7c0.93,0.37,1.1,0.65,1.1,1.11c0,0.76-0.63,0.91-1.16,0.91c-0.92,0-1.44-0.56-1.44-1.54
			c0-0.1-0.08-0.19-0.19-0.19h-2.32c-0.1,0-0.19,0.08-0.19,0.19c0,2.35,1.54,3.75,4.12,3.75c2.31,0,3.86-1.32,3.86-3.28
			C720.74,551.28,720.05,550.31,718.61,549.74z"/>
		<path d="M735.3,545.05c-2.75,0-5.53,1.88-5.53,5.48s2.78,5.48,5.53,5.48s5.53-1.88,5.53-5.48S738.05,545.05,735.3,545.05z
			 M738.04,550.53c0,1.51-0.85,3.03-2.74,3.03c-0.77,0-1.43-0.26-1.91-0.74c-0.55-0.55-0.84-1.36-0.83-2.29
			c-0.01-0.93,0.29-1.74,0.83-2.29c0.48-0.49,1.14-0.74,1.91-0.74C737.19,547.5,738.04,549.03,738.04,550.53z"/>
		<path d="M752.63,545.34h-2.22c-0.1,0-0.19,0.08-0.19,0.19v5.73l-3.12-5.82c-0.03-0.06-0.1-0.1-0.17-0.1h-2.37
			c-0.1,0-0.19,0.08-0.19,0.19v10.01c0,0.1,0.08,0.19,0.19,0.19h2.22c0.1,0,0.19-0.08,0.19-0.19v-5.73l3.12,5.82
			c0.03,0.06,0.1,0.1,0.17,0.1h2.37c0.1,0,0.19-0.08,0.19-0.19v-10.01C752.82,545.42,752.74,545.34,752.63,545.34z"/>
		<path d="M681.68,570.04h-6.12c-0.1,0-0.19,0.08-0.19,0.19v10.01c0,0.1,0.08,0.19,0.19,0.19h6.12c0.1,0,0.19-0.08,0.19-0.19
			v-1.86c0-0.1-0.08-0.19-0.19-0.19h-3.62v-1.83h3.62c0.1,0,0.19-0.08,0.19-0.19v-1.82c0-0.1-0.08-0.19-0.19-0.19h-3.62v-1.9h3.62
			c0.1,0,0.19-0.08,0.19-0.19v-1.86C681.87,570.12,681.79,570.04,681.68,570.04z"/>
		<path d="M690.99,570.04h-2.33c-0.08,0-0.15,0.05-0.18,0.13l-3.39,10.01c-0.02,0.06-0.01,0.12,0.03,0.17
			c0.04,0.05,0.09,0.08,0.15,0.08h2.44c0.08,0,0.16-0.06,0.18-0.14l0.31-1.08h3.26l0.31,1.08c0.02,0.08,0.1,0.14,0.18,0.14h2.44
			c0.06,0,0.12-0.03,0.15-0.08c0.04-0.05,0.04-0.11,0.03-0.17l-3.4-10.01C691.14,570.09,691.07,570.04,690.99,570.04z
			 M688.82,577.02l1.01-3.57l1.01,3.57H688.82z"/>
		<path d="M706.12,573.85c0-2.21-1.59-3.81-3.78-3.81h-4.26c-0.1,0-0.19,0.08-0.19,0.19v10.01c0,0.1,0.08,0.19,0.19,0.19h2.32
			c0.1,0,0.19-0.08,0.19-0.19v-2.59h0.92l1.52,2.68c0.03,0.06,0.1,0.09,0.16,0.09h2.63c0.07,0,0.13-0.03,0.16-0.09
			c0.03-0.06,0.04-0.13,0-0.19l-1.66-3.01C705.45,576.49,706.12,575.28,706.12,573.85z M703.4,573.85c0,0.89-0.6,1.54-1.42,1.54
			h-1.4v-3.09h1.4C702.81,572.3,703.4,572.95,703.4,573.85z"/>
		<path d="M716.86,570.04h-7.81c-0.1,0-0.19,0.08-0.19,0.19v2.06c0,0.1,0.08,0.19,0.19,0.19h2.56v7.76c0,0.1,0.08,0.19,0.19,0.19
			h2.3c0.1,0,0.19-0.08,0.19-0.19v-7.76h2.57c0.1,0,0.19-0.08,0.19-0.19v-2.06C717.05,570.12,716.97,570.04,716.86,570.04z"/>
		<path d="M728.58,570.04h-2.32c-0.1,0-0.19,0.08-0.19,0.19v3.86h-3.09v-3.86c0-0.1-0.08-0.19-0.19-0.19h-2.32
			c-0.1,0-0.19,0.08-0.19,0.19v10.01c0,0.1,0.08,0.19,0.19,0.19h2.32c0.1,0,0.19-0.08,0.19-0.19v-3.79h3.09v3.79
			c0,0.1,0.08,0.19,0.19,0.19h2.32c0.1,0,0.19-0.08,0.19-0.19v-10.01C728.77,570.12,728.69,570.04,728.58,570.04z"/>
	</g>

</svg>
