<svg xmlns="http://www.w3.org/2000/svg" viewBox="0 0 423.5 136.85" preserveAspectRatio="xMidYMid slice">
  <defs/>
  <g>
    <path d="m41.65 93.94 8.18-14.54c.39-.7 1.21-1.04 1.98-.83l8.03 2.19c1.11.3 1.63 1.59 1.04 2.57l-19.87 33.16c-.4.67-1.2.99-1.95.78l-9.85-2.69c-.75-.2-1.27-.87-1.28-1.65l-.36-19.59c-.03-1.71-2.26-2.35-3.2-.92l-10.88 16.63c-.41.63-1.19.93-1.91.73l-9.72-2.65c-.75-.2-1.27-.88-1.28-1.65L0 66.76a1.734 1.734 0 0 1 2.2-1.7l10.13 2.76c.77.21 1.3.92 1.28 1.72l-.44 16.85c-.05 1.79 2.32 2.48 3.24.93l8.7-14.69c.4-.67 1.2-1 1.96-.79l9.89 2.7c.75.21 1.28.88 1.28 1.66l.15 16.91c.02 1.78 2.38 2.39 3.26.84ZM112.32 114.24l-2.94-11.86c-.23-.93-1.18-1.5-2.11-1.27l-10.32 2.56c-.93.23-1.5 1.18-1.27 2.11l2.94 11.86c.23.93-.34 1.88-1.27 2.11l-9.31 2.31c-.93.23-1.88-.34-2.11-1.27l-8.95-36.12c-.23-.93.34-1.88 1.27-2.11l9.31-2.31c.93-.23 1.88.34 2.11 1.27l2.88 11.63c.23.93 1.18 1.5 2.11 1.27l10.32-2.56c.93-.23 1.5-1.18 1.27-2.11l-2.88-11.63c-.23-.93.34-1.88 1.27-2.11l9.31-2.31c.93-.23 1.88.34 2.11 1.27l8.95 36.12c.23.93-.34 1.88-1.27 2.11l-9.31 2.31c-.93.23-1.88-.34-2.11-1.27ZM156.57 93.24l-24.18-28.28a1.74 1.74 0 0 1 .19-2.45l22.34-19.1a1.74 1.74 0 0 1 2.45.19l3.85 4.51c.62.73.54 1.83-.19 2.45l-12.4 10.6c-.73.62-.82 1.72-.19 2.45l1.91 2.23c.62.73 1.72.82 2.45.19l9.29-7.94a1.74 1.74 0 0 1 2.45.19l3.26 3.81c.62.73.54 1.83-.19 2.45l-9.29 7.94c-.73.62-.82 1.72-.19 2.45l2.26 2.65c.62.73 1.72.82 2.45.19l12.64-10.8a1.74 1.74 0 0 1 2.45.19l3.85 4.5c.62.73.54 1.83-.19 2.45l-22.57 19.3c-.73.62-1.83.54-2.45-.19ZM196.41 60.38 179.95 27c-.43-.86-.07-1.91.79-2.33l26.37-13c.86-.43 1.91-.07 2.33.79l2.62 5.32c.43.86.07 1.91-.79 2.33l-14.64 7.22c-.86.43-1.22 1.47-.79 2.33l1.3 2.63c.43.86 1.47 1.22 2.33.79l10.96-5.41c.86-.43 1.91-.07 2.33.79l2.22 4.5c.43.86.07 1.91-.79 2.33l-10.96 5.41c-.86.43-1.22 1.47-.79 2.33l1.54 3.13c.43.86 1.47 1.22 2.33.79l14.91-7.35c.86-.43 1.91-.07 2.33.79l2.62 5.32c.43.86.07 1.91-.79 2.33l-26.64 13.14c-.86.43-1.91.07-2.33-.79ZM245.13 39.8l-3.29-37.06c-.09-.96.62-1.8 1.58-1.89l9.55-.85c.96-.09 1.8.62 1.89 1.58l2.45 27.57c.09.96.93 1.67 1.89 1.58l15.52-1.38c.96-.09 1.8.62 1.89 1.58l.54 6.02c.09.96-.62 1.8-1.58 1.89l-28.54 2.54c-.96.09-1.8-.62-1.89-1.58Z"/>
    <path d="m297.25 38.5 8.77-36.17c.23-.93 1.17-1.51 2.1-1.28l9.32 2.26c.93.23 1.51 1.17 1.28 2.1l-8.77 36.17c-.23.93-1.17 1.51-2.1 1.28l-9.32-2.26a1.742 1.742 0 0 1-1.28-2.1Z"/>
    <path d="m330.94 50.1 22.85-29.38c.59-.76 1.68-.9 2.44-.31l23.2 18.05c.76.59.9 1.68.31 2.44l-3.64 4.68c-.59.76-1.68.9-2.44.31l-12.88-10.02c-.76-.59-1.85-.45-2.44.31l-1.8 2.32c-.59.76-.45 1.85.31 2.44l9.65 7.5c.76.59.9 1.68.31 2.44l-3.08 3.96c-.59.76-1.68.9-2.44.31l-9.65-7.5c-.76-.59-1.85-.45-2.44.31l-2.14 2.75c-.59.76-.45 1.85.31 2.44l13.12 10.2c.76.59.9 1.68.31 2.44l-3.64 4.68c-.59.76-1.68.9-2.44.31l-23.44-18.23c-.76-.59-.9-1.68-.31-2.44ZM397.34 99.08c-7.33-1.96-13.16-6.29-16.88-10.92-.55-.69-.46-1.69.17-2.31l3.91-3.84c.72-.71 1.89-.67 2.53.11 3.16 3.87 8.3 7.52 12.9 8.75 2.77.74 4.83.6 5.31-1.18.54-2.01-1.71-3.55-6.8-6.49-10.57-6.11-13.55-10.57-11.57-18 1.76-6.61 8.66-10.2 20.82-6.96 5.95 1.59 11.13 4.49 15.36 9.3.58.66.55 1.68-.05 2.33l-3.54 3.83c-.68.74-1.83.72-2.54 0-3.49-3.56-7.81-6.16-11.74-7.21-2.95-.79-4.92-.74-5.38.97-.53 2.01.72 3.23 6.77 6.61 9.68 5.43 13.6 10.39 11.79 17.18-1.65 6.2-6.72 11.67-21.06 7.85ZM42.06 21.41H39.5c-.07 0-.14.04-.17.11l-1.69 3.61-1.95-3.62c-.03-.06-.1-.1-.17-.1h-2.69c-.07 0-.13.03-.16.09s-.03.13 0 .19l3.5 6.15-1.81 3.69c-.03.06-.03.13 0 .18s.09.09.16.09h2.57c.07 0 .14-.04.17-.1l4.96-10.01c.03-.06.03-.13 0-.18s-.09-.09-.16-.09ZM53.17 21.41h-2.32c-.1 0-.19.08-.19.19v6.48c0 1.01-.56 1.6-1.54 1.6s-1.54-.6-1.54-1.6V21.6c0-.1-.08-.19-.19-.19h-2.3c-.1 0-.19.08-.19.19v6.62c0 2.37 1.62 3.83 4.22 3.83s4.23-1.47 4.23-3.83V21.6c0-.1-.08-.19-.19-.19ZM68.11 21.41h-2.63c-.08 0-.15.05-.18.12l-2.48 6.64-2.48-6.64a.198.198 0 0 0-.18-.12h-2.69c-.1 0-.19.08-.19.19v10.01c0 .1.08.19.19.19h2.22c.1 0 .19-.08.19-.19v-5.42l1.91 5.48c.03.08.1.13.18.13h1.71c.08 0 .15-.05.18-.13l1.85-5.42v5.36c0 .1.08.19.19.19h2.22c.1 0 .19-.08.19-.19V21.6c0-.1-.08-.19-.19-.19ZM86.75 21.41h-2.56c-.07 0-.14.04-.17.11l-1.69 3.61-1.95-3.62c-.03-.06-.1-.1-.17-.1h-2.69c-.07 0-.13.03-.16.09s-.03.13 0 .19l3.5 6.15-1.81 3.69c-.03.06-.03.13 0 .18s.09.09.16.09h2.57c.07 0 .14-.04.17-.1l4.96-10.01c.03-.06.03-.13 0-.18s-.09-.09-.16-.09ZM97.87 21.41h-2.32c-.1 0-.19.08-.19.19v6.48c0 1.01-.56 1.6-1.54 1.6s-1.54-.6-1.54-1.6V21.6c0-.1-.08-.19-.19-.19h-2.3c-.1 0-.19.08-.19.19v6.62c0 2.37 1.62 3.83 4.22 3.83s4.23-1.47 4.23-3.83V21.6c0-.1-.08-.19-.19-.19ZM112.8 21.41h-2.63c-.08 0-.15.05-.18.12l-2.48 6.64-2.48-6.64a.198.198 0 0 0-.18-.12h-2.69c-.1 0-.19.08-.19.19v10.01c0 .1.08.19.19.19h2.22c.1 0 .19-.08.19-.19v-5.42l1.91 5.48c.03.08.1.13.18.13h1.71c.08 0 .15-.05.18-.13l1.85-5.42v5.36c0 .1.08.19.19.19h2.22c.1 0 .19-.08.19-.19V21.6c0-.1-.08-.19-.19-.19Z"/>
    <ellipse cx="72.82" cy="49.93" rx="1.6" ry="1.59"/>
    <path d="M240.81 79.5h2.56v7.76c0 .1.08.19.19.19h2.3c.1 0 .19-.08.19-.19V79.5h2.57c.1 0 .19-.08.19-.19v-2.06c0-.1-.08-.19-.19-.19h-7.81c-.1 0-.19.08-.19.19v2.06c0 .1.08.19.19.19Z"/>
    <rect width="2.69" height="10.39" x="252.06" y="77.06" rx=".19" ry=".19"/>
    <path d="M259.08 87.45h2.22c.1 0 .19-.08.19-.19v-5.73l3.12 5.82c.03.06.1.1.17.1h2.37c.1 0 .19-.08.19-.19V77.25c0-.1-.08-.19-.19-.19h-2.22c-.1 0-.19.08-.19.19v5.73l-3.12-5.82c-.03-.06-.1-.1-.17-.1h-2.37c-.1 0-.19.08-.19.19v10.01c0 .1.08.19.19.19Z"/>
    <rect width="2.69" height="10.39" x="271.49" y="77.06" rx=".19" ry=".19"/>
    <path d="M278.51 87.45h6.12c.1 0 .19-.08.19-.19V85.4c0-.1-.08-.19-.19-.19h-3.62v-1.83h3.62c.1 0 .19-.08.19-.19v-1.82c0-.1-.08-.19-.19-.19h-3.62v-1.9h3.62c.1 0 .19-.08.19-.19v-1.86c0-.1-.08-.19-.19-.19h-6.12c-.1 0-.19.08-.19.19v10.01c0 .1.08.19.19.19ZM292.33 87.74c2.31 0 3.86-1.32 3.86-3.27 0-1.45-.7-2.43-2.13-2.99l-1.66-.66c-1.05-.42-1.26-.73-1.26-1.13 0-.51.37-.8 1.01-.8.79 0 1.2.42 1.2 1.26 0 .1.08.19.19.19h2.32c.1 0 .19-.08.19-.19 0-2.01-1.55-3.36-3.85-3.36s-3.75 1.22-3.75 3.12c0 1.38.74 2.38 2.15 2.91l1.8.7c.93.37 1.1.65 1.1 1.11 0 .76-.63.91-1.16.91-.92 0-1.44-.56-1.44-1.54 0-.1-.08-.19-.19-.19h-2.32c-.1 0-.19.08-.19.19 0 2.35 1.54 3.75 4.12 3.75ZM299.03 79.5h2.56v7.76c0 .1.08.19.19.19h2.3c.1 0 .19-.08.19-.19V79.5h2.57c.1 0 .19-.08.19-.19v-2.06c0-.1-.08-.19-.19-.19h-7.81c-.1 0-.19.08-.19.19v2.06c0 .1.08.19.19.19ZM227.04 101.76h-3.78c-.1 0-.19.08-.19.19v10.01c0 .1.08.19.19.19h3.78c3.11 0 5.29-2.13 5.29-5.19s-2.18-5.19-5.29-5.19Zm2.53 5.19c0 1.43-.85 2.87-2.74 2.87h-1.06v-5.74h1.06c1.89 0 2.74 1.44 2.74 2.87ZM240.8 101.48c-2.75 0-5.53 1.88-5.53 5.48s2.78 5.48 5.53 5.48 5.53-1.88 5.53-5.48-2.78-5.48-5.53-5.48Zm2.74 5.48c0 1.51-.85 3.03-2.74 3.03-.77 0-1.43-.26-1.91-.74-.55-.55-.84-1.36-.83-2.29 0-.93.29-1.74.83-2.29.48-.49 1.14-.74 1.91-.74 1.9 0 2.74 1.52 2.74 3.03ZM258.33 111.96v-10.01c0-.1-.08-.19-.19-.19h-2.22c-.1 0-.19.08-.19.19v5.73l-3.12-5.82c-.03-.06-.1-.1-.17-.1h-2.37c-.1 0-.19.08-.19.19v10.01c0 .1.08.19.19.19h2.22c.1 0 .19-.08.19-.19v-5.73l3.12 5.82c.03.06.1.1.17.1h2.37c.1 0 .19-.08.19-.19ZM270.71 101.95c0-.1-.08-.19-.19-.19h-2.32c-.1 0-.19.08-.19.19v6.48c0 1.02-.56 1.6-1.54 1.6s-1.54-.6-1.54-1.6v-6.48c0-.1-.08-.19-.19-.19h-2.3c-.1 0-.19.08-.19.19v6.62c0 2.37 1.62 3.83 4.22 3.83s4.23-1.47 4.23-3.83v-6.62ZM281.91 104.01v-2.06c0-.1-.08-.19-.19-.19h-7.81c-.1 0-.19.08-.19.19v2.06c0 .1.08.19.19.19h2.56v7.76c0 .1.08.19.19.19h2.3c.1 0 .19-.08.19-.19v-7.76h2.57c.1 0 .19-.08.19-.19ZM290.36 106.17l-1.66-.66c-1.05-.43-1.25-.74-1.25-1.13 0-.51.37-.8 1.01-.8.8 0 1.2.42 1.2 1.26 0 .1.08.19.19.19h2.32c.1 0 .19-.08.19-.19 0-2.01-1.55-3.36-3.85-3.36s-3.75 1.25-3.75 3.12c0 1.38.74 2.38 2.15 2.91l1.8.7c.93.37 1.1.65 1.1 1.11 0 .76-.63.91-1.16.91-.92 0-1.44-.56-1.44-1.54 0-.1-.08-.19-.19-.19h-2.32c-.1 0-.19.08-.19.19 0 2.35 1.54 3.75 4.12 3.75 2.31 0 3.86-1.32 3.86-3.28 0-1.45-.7-2.43-2.14-2.99ZM307.05 101.48c-2.75 0-5.53 1.88-5.53 5.48s2.78 5.48 5.53 5.48 5.53-1.88 5.53-5.48-2.78-5.48-5.53-5.48Zm2.74 5.48c0 1.51-.85 3.03-2.74 3.03-.77 0-1.43-.26-1.91-.74-.55-.55-.84-1.36-.83-2.29 0-.93.29-1.74.83-2.29.48-.49 1.14-.74 1.91-.74 1.89 0 2.74 1.52 2.74 3.03ZM324.38 101.76h-2.22c-.1 0-.19.08-.19.19v5.73l-3.12-5.82c-.03-.06-.1-.1-.17-.1h-2.37c-.1 0-.19.08-.19.19v10.01c0 .1.08.19.19.19h2.22c.1 0 .19-.08.19-.19v-5.73l3.12 5.82c.03.06.1.1.17.1h2.37c.1 0 .19-.08.19-.19v-10.01c0-.1-.08-.19-.19-.19ZM253.44 126.46h-6.12c-.1 0-.19.08-.19.19v10.01c0 .1.08.19.19.19h6.12c.1 0 .19-.08.19-.19v-1.86c0-.1-.08-.19-.19-.19h-3.62v-1.83h3.62c.1 0 .19-.08.19-.19v-1.82c0-.1-.08-.19-.19-.19h-3.62v-1.9h3.62c.1 0 .19-.08.19-.19v-1.86c0-.1-.08-.19-.19-.19ZM262.74 126.46h-2.33c-.08 0-.15.05-.18.13l-3.39 10.01c-.02.06 0 .12.03.17.04.05.09.08.15.08h2.44c.08 0 .16-.06.18-.14l.31-1.08h3.26l.31 1.08c.02.08.1.14.18.14h2.44c.06 0 .12-.03.15-.08.04-.05.04-.11.03-.17l-3.4-10.01a.192.192 0 0 0-.18-.13Zm-2.17 6.98 1.01-3.57 1.01 3.57h-2.02ZM277.87 130.27c0-2.21-1.59-3.81-3.78-3.81h-4.26c-.1 0-.19.08-.19.19v10.01c0 .1.08.19.19.19h2.32c.1 0 .19-.08.19-.19v-2.59h.92l1.52 2.68c.03.06.1.09.16.09h2.63c.07 0 .13-.03.16-.09s.04-.13 0-.19l-1.66-3.01c1.13-.65 1.8-1.86 1.8-3.29Zm-2.72 0c0 .89-.6 1.54-1.42 1.54h-1.4v-3.09h1.4c.82 0 1.42.65 1.42 1.54ZM288.61 126.46h-7.81c-.1 0-.19.08-.19.19v2.06c0 .1.08.19.19.19h2.56v7.76c0 .1.08.19.19.19h2.3c.1 0 .19-.08.19-.19v-7.76h2.57c.1 0 .19-.08.19-.19v-2.06c0-.1-.08-.19-.19-.19ZM300.33 126.46h-2.32c-.1 0-.19.08-.19.19v3.86h-3.09v-3.86c0-.1-.08-.19-.19-.19h-2.32c-.1 0-.19.08-.19.19v10.01c0 .1.08.19.19.19h2.32c.1 0 .19-.08.19-.19v-3.79h3.09v3.79c0 .1.08.19.19.19h2.32c.1 0 .19-.08.19-.19v-10.01c0-.1-.08-.19-.19-.19Z"/>
  </g>
</svg>
